HIERARCHY
ROOT joint_Root
{
	OFFSET 0.0 0.0 0.0
	CHANNELS 6 Xposition Yposition Zposition Zrotation Xrotation Yrotation 
	JOINT Hips
	{
		OFFSET -17.1583 93.1646 452.98
		CHANNELS 6 Xposition Yposition Zposition Zrotation Xrotation Yrotation 
		JOINT Spine
		{
			OFFSET 15.7357 0.0 0.0
			CHANNELS 6 Xposition Yposition Zposition Zrotation Xrotation Yrotation 
			JOINT Chest
			{
				OFFSET 8.98455 -0.406207 0.0
				CHANNELS 6 Xposition Yposition Zposition Zrotation Xrotation Yrotation 
				JOINT Neck
				{
					OFFSET 16.3773 0.0 0.0
					CHANNELS 6 Xposition Yposition Zposition Zrotation Xrotation Yrotation 
					JOINT Head
					{
						OFFSET 6.45672 0.0 0.0
						CHANNELS 6 Xposition Yposition Zposition Zrotation Xrotation Yrotation 
						End Site
						{
							OFFSET 0.0 0.0 0.0
						}
					}
				}
				JOINT Shoulder_L
				{
					OFFSET 12.9942 -0.242716 4.98039
					CHANNELS 6 Xposition Yposition Zposition Zrotation Xrotation Yrotation 
					JOINT UpperArm_L
					{
						OFFSET 5.34809 0.0 0.0
						CHANNELS 6 Xposition Yposition Zposition Zrotation Xrotation Yrotation 
						JOINT LowerArm_L
						{
							OFFSET 24.3286 1.87007e-05 0.0
							CHANNELS 6 Xposition Yposition Zposition Zrotation Xrotation Yrotation 
							JOINT Hand_L
							{
								OFFSET 22.2916 0.0 0.0
								CHANNELS 6 Xposition Yposition Zposition Zrotation Xrotation Yrotation 
								End Site
								{
									OFFSET 0.0 0.0 0.0
								}
							}
						}
					}
				}
				JOINT Shoulder_R
				{
					OFFSET 12.9945 -0.242716 -4.98039
					CHANNELS 6 Xposition Yposition Zposition Zrotation Xrotation Yrotation 
					JOINT UpperArm_R
					{
						OFFSET -5.34813 0.0 0.0
						CHANNELS 6 Xposition Yposition Zposition Zrotation Xrotation Yrotation 
						JOINT LowerArm_R
						{
							OFFSET -24.3289 0.000322201 0.0
							CHANNELS 6 Xposition Yposition Zposition Zrotation Xrotation Yrotation 
							JOINT Hand_R
							{
								OFFSET -22.2915 -0.000108084 0.0
								CHANNELS 6 Xposition Yposition Zposition Zrotation Xrotation Yrotation 
								End Site
								{
									OFFSET 0.0 0.0 0.0
								}
							}
						}
					}
				}
			}
		}
		JOINT UpperLeg_L
		{
			OFFSET -2.19248 -6.46944 0.0
			CHANNELS 6 Xposition Yposition Zposition Zrotation Xrotation Yrotation 
			JOINT LowerLeg_L
			{
				OFFSET 39.0811 0.0 -1.23785e-05
				CHANNELS 6 Xposition Yposition Zposition Zrotation Xrotation Yrotation 
				JOINT Foot_L
				{
					OFFSET 40.9854 0.0 -1.26872e-05
					CHANNELS 6 Xposition Yposition Zposition Zrotation Xrotation Yrotation 
					JOINT Toes_L
					{
						OFFSET 11.7543 0.0 0.0
						CHANNELS 6 Xposition Yposition Zposition Zrotation Xrotation Yrotation 
						End Site
						{
							OFFSET 0.0 0.0 0.0
						}
					}
				}
			}
		}
		JOINT UpperLeg_R
		{
			OFFSET -2.19251 6.46944 0.0
			CHANNELS 6 Xposition Yposition Zposition Zrotation Xrotation Yrotation 
			JOINT LowerLeg_R
			{
				OFFSET -39.0811 -0.00228153 -0.0401928
				CHANNELS 6 Xposition Yposition Zposition Zrotation Xrotation Yrotation 
				JOINT Foot_R
				{
					OFFSET -40.9854 0.0 0.0
					CHANNELS 6 Xposition Yposition Zposition Zrotation Xrotation Yrotation 
					JOINT Toes_R
					{
						OFFSET -11.7543 0.0 0.0
						CHANNELS 6 Xposition Yposition Zposition Zrotation Xrotation Yrotation 
						End Site
						{
							OFFSET 0.0 0.0 0.0
						}
					}
				}
			}
		}
	}
}
MOTION
Frames:	6
Frame Time:	0.0333333
0.000000 0.000000 0.000000 0.000000 0.000000 -0.000000 -1.180020 83.979500 -425.262000 84.155700 0.635766 -14.884300 15.735700 0.000005 -0.000001 83.585500 82.963200 -78.793100 8.984550 -0.406207 -0.000000 6.307770 -1.628040 9.664480 16.377300 -0.000001 -0.000001 -11.101500 3.682220 2.105280 6.456720 -0.000001 -0.000000 -4.802620 10.612700 -12.360700 12.994200 -0.242716 4.980390 -92.631600 9.709590 -74.756200 5.348090 -0.000007 -0.000001 -74.546800 -11.221600 6.894850 24.328600 0.000019 0.000005 50.623000 32.139400 -66.411300 22.291600 -0.000001 0.000005 46.985100 4.315170 19.558400 12.994500 -0.242716 -4.980390 89.314200 2.518100 -74.757200 -5.348130 -0.000001 -0.000004 -65.410200 -2.338240 0.924688 -24.328900 0.000322 -0.000009 0.233480 0.779408 -16.771600 -22.291500 -0.000108 -0.000004 45.524100 5.248590 1.466770 -2.192480 -6.469440 -0.000000 -172.828000 -3.416840 -16.352100 39.081100 -0.000007 -0.000012 0.319839 -0.115726 70.107800 40.985400 -0.000006 -0.000013 -7.542710 4.164280 -25.797500 11.754300 -0.000000 0.000003 0.001245 0.024567 -15.580200 -2.192510 6.469440 -0.000001 -171.375000 -1.739400 137.949000 -39.081100 -0.002282 -0.040193 0.033417 -0.019832 56.706100 -40.985400 0.000008 0.000006 -5.681390 -4.501970 -85.548700 -11.754300 -0.000006 -0.000006 -0.006040 0.238866 -6.875810
0.000000 0.000000 0.000000 0.000000 0.000000 -0.000000 -1.678860 82.482800 -419.145000 82.517200 -0.752002 -13.882800 15.735700 0.000005 -0.000001 92.880800 82.181200 -87.963800 8.984550 -0.406207 -0.000000 7.837490 0.786537 9.770250 16.377300 -0.000001 -0.000001 -10.725800 3.582490 2.279690 6.456720 -0.000001 -0.000000 -7.524950 9.763540 -11.744100 12.994200 -0.242716 4.980390 -92.661600 9.061980 -73.555100 5.348090 -0.000007 -0.000001 -69.678800 -20.032300 12.750200 24.328600 0.000019 0.000005 45.707600 31.074400 -63.272500 22.291600 -0.000001 0.000005 49.540300 4.243880 20.643800 12.994500 -0.242716 -4.980390 89.272700 2.845970 -75.659200 -5.348130 -0.000001 -0.000004 -67.009700 -1.300830 -7.089590 -24.328900 0.000322 -0.000009 2.133310 4.294030 -26.339700 -22.291500 -0.000108 -0.000004 43.991300 5.248510 1.471380 -2.192480 -6.469440 -0.000000 -171.688000 -4.611450 -27.141300 39.081100 -0.000007 -0.000012 0.409992 -0.041697 84.191800 40.985400 -0.000006 -0.000013 -7.609700 2.176450 -31.303600 11.754300 -0.000000 0.000003 0.001645 0.035032 -15.155700 -2.192510 6.469440 -0.000001 -169.641000 -2.707680 142.690000 -39.081100 -0.002282 -0.040193 0.003164 0.000023 59.438900 -40.985400 0.000008 0.000006 -6.090310 -3.113580 -90.779700 -11.754300 -0.000006 -0.000006 -0.004146 0.220621 -7.619460
0.000000 0.000000 0.000000 0.000000 0.000000 -0.000000 -1.905260 82.521100 -412.917000 82.895100 -1.274200 -13.985600 15.735700 0.000005 -0.000001 100.603000 82.067400 -96.104500 8.984550 -0.406207 -0.000000 7.737220 2.906590 8.791370 16.377300 -0.000001 -0.000001 -10.649200 2.963060 2.311630 6.456720 -0.000001 -0.000000 -7.522400 7.791670 -11.167600 12.994200 -0.242716 4.980390 -92.557200 8.333790 -72.874300 5.348090 -0.000007 -0.000001 -62.292100 -25.167800 18.277500 24.328600 0.000019 0.000005 46.916500 31.470300 -63.976000 22.291600 -0.000001 0.000005 52.084600 4.114800 22.564700 12.994500 -0.242716 -4.980390 89.342700 2.731180 -76.463000 -5.348130 -0.000001 -0.000004 -68.593900 -1.788390 -9.576510 -24.328900 0.000322 -0.000009 6.779790 6.905590 -44.636700 -22.291500 -0.000108 -0.000004 45.942500 5.215710 2.312430 -2.192480 -6.469440 -0.000000 -173.079000 -4.195750 -38.097700 39.081100 -0.000007 -0.000012 0.256866 0.007418 91.652100 40.985400 -0.000006 -0.000013 -4.569320 3.504940 -40.363500 11.754300 -0.000000 0.000003 0.001482 0.030514 -15.338900 -2.192510 6.469440 -0.000001 -170.122000 -1.985630 148.594000 -39.081100 -0.002282 -0.040193 0.005902 -0.001724 57.310300 -40.985400 0.000008 0.000006 -6.159940 -1.164490 -93.112800 -11.754300 -0.000006 -0.000006 -0.001599 0.191242 -8.814910
0.000000 0.000000 0.000000 0.000000 0.000000 -0.000000 -1.738540 84.189700 -406.215000 84.997000 -0.529225 -14.906100 15.735700 0.000005 -0.000001 106.352000 82.237500 -102.799000 8.984550 -0.406207 -0.000000 7.021440 4.332870 6.834650 16.377300 -0.000001 -0.000001 -10.870900 1.841010 2.610650 6.456720 -0.000001 -0.000000 -7.311620 5.493730 -10.029900 12.994200 -0.242716 4.980390 -92.253600 7.384740 -72.976800 5.348090 -0.000007 -0.000001 -55.577700 -27.894000 22.355600 24.328600 0.000019 0.000005 46.734700 29.985300 -64.808000 22.291600 -0.000001 0.000005 53.634900 4.047270 23.549100 12.994500 -0.242716 -4.980390 89.327100 2.873870 -76.816500 -5.348130 -0.000001 -0.000004 -68.632100 -1.177060 -10.222000 -24.328900 0.000322 -0.000009 10.808800 5.619550 -62.832900 -22.291500 -0.000108 -0.000004 47.301800 5.152030 3.892650 -2.192480 -6.469440 -0.000000 -176.218000 -1.618990 -46.856100 39.081100 -0.000007 -0.000012 0.072021 0.001536 91.214000 40.985400 -0.000006 -0.000013 -1.931760 0.775387 -50.920200 11.754300 -0.000000 0.000003 0.001746 0.038031 -15.034000 -2.192510 6.469440 -0.000001 -172.609000 0.376268 156.070000 -39.081100 -0.002282 -0.040193 0.016168 -0.010931 49.767400 -40.985400 0.000008 0.000006 -6.397170 1.152880 -91.457300 -11.754300 -0.000006 -0.000006 0.000923 0.150339 -10.476300
0.000000 0.000000 0.000000 0.000000 0.000000 -0.000000 -1.272340 86.920100 -398.880000 87.998200 0.818953 -16.330800 15.735700 0.000005 -0.000001 108.934000 82.745800 -106.604000 8.984550 -0.406207 -0.000000 5.881890 4.657140 4.417250 16.377300 -0.000001 -0.000001 -10.816700 0.742765 2.696740 6.456720 -0.000001 -0.000000 -7.252690 3.493790 -8.144910 12.994200 -0.242716 4.980390 -91.764000 5.867710 -73.235800 5.348090 -0.000007 -0.000001 -51.075300 -28.952100 26.096300 24.328600 0.000019 0.000005 46.837800 27.944400 -66.276600 22.291600 -0.000001 0.000005 54.029500 3.987950 24.397100 12.994500 -0.242716 -4.980390 89.429800 2.455930 -76.924800 -5.348130 -0.000001 -0.000004 -68.872500 -0.040855 -10.404400 -24.328900 0.000322 -0.000009 14.714700 3.562400 -76.669100 -22.291500 -0.000108 -0.000004 47.118800 5.137760 4.232670 -2.192480 -6.469440 -0.000000 -179.621000 2.270790 -51.980900 39.081100 -0.000007 -0.000012 -0.039017 0.004661 83.199100 40.985400 -0.000006 -0.000013 -1.607640 -4.954250 -59.116800 11.754300 -0.000000 0.000003 0.001555 0.032497 -15.258500 -2.192510 6.469440 -0.000001 -175.978000 2.649390 164.279000 -39.081100 -0.002282 -0.040193 0.028123 -0.030830 38.861000 -40.985400 0.000008 0.000006 -7.211200 1.588660 -83.843600 -11.754300 -0.000006 -0.000006 0.001835 0.040842 -14.916400
0.000000 0.000000 0.000000 0.000000 0.000000 -0.000000 -0.627524 90.040400 -391.301000 91.426300 1.647320 -18.890500 15.735700 0.000005 -0.000001 113.411000 83.795600 -112.621000 8.984550 -0.406207 -0.000000 3.599080 4.895260 1.424240 16.377300 -0.000001 -0.000001 -10.518100 -0.214009 2.620990 6.456720 -0.000001 -0.000000 -6.301000 1.163310 -5.591020 12.994200 -0.242716 4.980390 -91.194300 4.008480 -73.394100 5.348090 -0.000007 -0.000001 -48.384800 -28.373300 29.275700 24.328600 0.000019 0.000005 47.444500 25.855600 -68.178900 22.291600 -0.000001 0.000005 53.158300 3.973190 24.605500 12.994500 -0.242716 -4.980390 89.552900 1.939560 -77.017700 -5.348130 -0.000001 -0.000004 -69.761600 0.732052 -8.973060 -24.328900 0.000322 -0.000009 18.971100 1.349670 -86.071100 -22.291500 -0.000108 -0.000004 47.187100 5.196780 2.796890 -2.192480 -6.469440 -0.000000 177.613000 6.052340 -54.292700 39.081100 -0.000007 -0.000012 -0.051653 0.019732 69.098400 40.985400 -0.000006 -0.000013 -2.182600 -6.845640 -64.513700 11.754300 -0.000000 0.000003 0.001727 0.037460 -15.057200 -2.192510 6.469440 -0.000001 -179.428000 4.727820 170.158000 -39.081100 -0.002282 -0.040193 0.032501 -0.054636 28.118100 -40.985400 0.000008 0.000006 -6.204820 -0.466509 -69.752500 -11.754300 -0.000006 -0.000006 -0.019713 -0.165693 -23.342100
